<svg width="31" height="27" viewBox="0 0 31 27" fill="none" xmlns="http://www.w3.org/2000/svg">
<path d="M0.70581 15.0897L0.70581 11.325L23.294 11.325L23.294 7.56026L27.0588 7.56026L27.0588 11.325L30.8235 11.325L30.8235 15.0897L27.0588 15.0897L27.0588 18.8544L23.294 18.8544L23.294 15.0897L0.70581 15.0897ZM19.5293 22.6191L23.294 22.6191L23.294 18.8544L19.5293 18.8544L19.5293 22.6191ZM19.5293 22.6191L15.7646 22.6191L15.7646 26.3838L19.5293 26.3838L19.5293 22.6191ZM19.5293 3.79555L23.294 3.79555L23.294 7.56026L19.5293 7.56026L19.5293 3.79555ZM19.5293 3.79555L15.7646 3.79555L15.7646 0.0308469L19.5293 0.0308467L19.5293 3.79555Z" fill="white"/>
</svg>
