<svg width="31" height="27" viewBox="0 0 31 27" fill="none" xmlns="http://www.w3.org/2000/svg">
<path d="M30.8235 11.3244L30.8235 15.0891L8.23525 15.0891L8.23525 18.8538L4.47054 18.8538L4.47054 15.0891L0.705837 15.0891L0.705837 11.3244L4.47054 11.3244L4.47054 7.55968L8.23525 7.55968L8.23525 11.3244L30.8235 11.3244ZM12 3.79498L8.23525 3.79498L8.23525 7.55968L12 7.55968L12 3.79498ZM12 3.79498L15.7647 3.79498L15.7647 0.0302728L12 0.0302726L12 3.79498ZM12 22.6185L8.23525 22.6185L8.23525 18.8538L12 18.8538L12 22.6185ZM12 22.6185L15.7647 22.6185L15.7647 26.3832L12 26.3832L12 22.6185Z" fill="white"/>
</svg>
