<svg width="361" height="58" viewBox="0 0 361 58" fill="none" xmlns="http://www.w3.org/2000/svg">
<g clip-path="url(#clip0_5093_12)">
<path d="M351.739 46.1363C350.026 47.8489 350.026 50.6257 351.739 52.3383C353.452 54.0509 356.228 54.0509 357.941 52.3383C359.654 50.6257 359.654 47.8489 357.941 46.1363C356.228 44.4237 353.452 44.4237 351.739 46.1363Z" fill="#DD0403"/>
<path d="M319.764 54C321.939 54 323.778 52.5328 324.346 50.5386C324.9 52.3252 326.566 53.6212 328.535 53.6212C330.504 53.6212 332.17 52.3229 332.724 50.5386C333.292 52.5351 335.129 54 337.306 54C339.483 54 341.32 52.5329 341.888 50.5386C342.442 52.3252 344.108 53.6212 346.077 53.6212C348.498 53.6212 350.462 51.659 350.462 49.2358C350.462 46.8126 348.5 44.8503 346.077 44.8503C344.108 44.8503 342.442 46.1486 341.888 47.9329C341.32 45.9364 339.483 44.4715 337.306 44.4715C335.129 44.4715 333.292 45.9387 332.724 47.9329C332.17 46.1463 330.504 44.8503 328.535 44.8503C326.566 44.8503 324.9 46.1486 324.346 47.9329C323.778 45.9364 321.941 44.4715 319.764 44.4715C317.138 44.4715 315 46.6072 315 49.2358C315 51.8643 317.138 54 319.764 54ZM337.304 45.2313C339.512 45.2313 341.31 47.0293 341.31 49.238C341.31 51.4468 339.512 53.2425 337.304 53.2425C335.095 53.2425 333.297 51.4445 333.297 49.2358C333.297 47.0271 335.095 45.2291 337.304 45.2291L337.304 45.2313ZM319.764 45.2313C321.973 45.2313 323.771 47.0293 323.771 49.238C323.771 51.4467 321.973 53.2447 319.764 53.2447C317.555 53.2447 315.757 51.4467 315.757 49.238C315.757 47.0293 317.555 45.2313 319.764 45.2313Z" fill="#DD0403"/>
</g>
<g clip-path="url(#clip1_5093_12)">
<path d="M8.68718 46.9759C10.4348 48.7234 10.4348 51.5568 8.68718 53.3044C6.9396 55.052 4.1062 55.052 2.35862 53.3044C0.611033 51.5568 0.611033 48.7234 2.35862 46.9759C4.1062 45.2283 6.9396 45.2283 8.68718 46.9759Z" fill="#DD0403"/>
<path d="M41.315 55C39.0962 55 37.2196 53.5029 36.6398 51.468C36.074 53.291 34.3744 54.6135 32.3651 54.6135C30.3558 54.6135 28.6561 53.2887 28.0904 51.468C27.5106 53.5052 25.6363 55 23.4151 55C21.194 55 19.3197 53.5029 18.7399 51.468C18.1742 53.291 16.4745 54.6135 14.4652 54.6135C11.9949 54.6135 9.99023 52.6112 9.99023 50.1385C9.99023 47.6659 11.9926 45.6636 14.4652 45.6636C16.4745 45.6636 18.1742 46.9884 18.7399 48.8091C19.3197 46.7718 21.194 45.2771 23.4151 45.2771C25.6363 45.2771 27.5106 46.7742 28.0904 48.8091C28.6561 46.986 30.3558 45.6636 32.3651 45.6636C34.3744 45.6636 36.074 46.9884 36.6398 48.8091C37.2196 46.7718 39.0938 45.2771 41.315 45.2771C43.9949 45.2771 46.1765 47.4563 46.1765 50.1385C46.1765 52.8207 43.9949 55 41.315 55ZM23.4175 46.0524C21.1637 46.0524 19.329 47.8871 19.329 50.1409C19.329 52.3946 21.1637 54.227 23.4175 54.227C25.6713 54.227 27.5059 52.3923 27.5059 50.1385C27.5059 47.8847 25.6713 46.0501 23.4175 46.0501L23.4175 46.0524ZM41.315 46.0524C39.0612 46.0524 37.2266 47.8871 37.2266 50.1409C37.2266 52.3946 39.0612 54.2293 41.315 54.2293C43.5688 54.2293 45.4035 52.3946 45.4035 50.1409C45.4035 47.8871 43.5688 46.0524 41.315 46.0524Z" fill="#DD0403"/>
</g>
<g clip-path="url(#clip2_5093_12)">
<path d="M325.101 15.6489C324.563 15.6489 324.127 16.0847 324.127 16.6232C324.127 17.1617 324.563 17.5975 325.101 17.5975C325.64 17.5975 326.076 17.1617 326.076 16.6232C326.076 16.0847 325.64 15.6489 325.101 15.6489Z" fill="#DD0403"/>
<path d="M330.821 17.5975C331.36 17.5975 331.796 17.1613 331.796 16.6232C331.796 16.0851 331.36 15.6489 330.821 15.6489C330.283 15.6489 329.847 16.0851 329.847 16.6232C329.847 17.1613 330.283 17.5975 330.821 17.5975Z" fill="#DD0403"/>
<path d="M330.821 22.9208C331.36 22.9208 331.796 22.4846 331.796 21.9465C331.796 21.4084 331.36 20.9722 330.821 20.9722C330.283 20.9722 329.847 21.4084 329.847 21.9465C329.847 22.4846 330.283 22.9208 330.821 22.9208Z" fill="#DD0403"/>
<path d="M336.512 17.5975C337.05 17.5975 337.486 17.1613 337.486 16.6232C337.486 16.0851 337.05 15.6489 336.512 15.6489C335.974 15.6489 335.538 16.0851 335.538 16.6232C335.538 17.1613 335.974 17.5975 336.512 17.5975Z" fill="#DD0403"/>
<path d="M336.512 22.9208C337.05 22.9208 337.486 22.4846 337.486 21.9465C337.486 21.4084 337.05 20.9722 336.512 20.9722C335.974 20.9722 335.538 21.4084 335.538 21.9465C335.538 22.4846 335.974 22.9208 336.512 22.9208Z" fill="#DD0403"/>
<path d="M342.205 20.9722C341.666 20.9722 341.23 21.408 341.23 21.9465C341.23 22.4849 341.666 22.9208 342.205 22.9208C342.743 22.9208 343.179 22.4849 343.179 21.9465C343.179 21.408 342.743 20.9722 342.205 20.9722Z" fill="#DD0403"/>
<path d="M347.896 15.6489C347.357 15.6489 346.921 16.0847 346.921 16.6232C346.921 17.1617 347.357 17.5975 347.896 17.5975C348.434 17.5975 348.87 17.1617 348.87 16.6232C348.87 16.0847 348.434 15.6489 347.896 15.6489Z" fill="#DD0403"/>
<path d="M353.589 15.6489C353.05 15.6489 352.614 16.0847 352.614 16.6232C352.614 17.1617 353.05 17.5975 353.589 17.5975C354.127 17.5975 354.563 17.1617 354.563 16.6232C354.563 16.0847 354.127 15.6489 353.589 15.6489Z" fill="#DD0403"/>
<path d="M359.279 17.5975C359.817 17.5975 360.253 17.1617 360.253 16.6232C360.253 16.0847 359.817 15.6489 359.279 15.6489C358.74 15.6489 358.305 16.0847 358.305 16.6232C358.305 17.1617 358.74 17.5975 359.279 17.5975Z" fill="#DD0403"/>
<path d="M359.279 20.9722C358.74 20.9722 358.305 21.408 358.305 21.9465C358.305 22.4849 358.74 22.9208 359.279 22.9208C359.817 22.9208 360.253 22.4849 360.253 21.9465C360.253 21.408 359.817 20.9722 359.279 20.9722Z" fill="#DD0403"/>
<path d="M325.101 5C324.563 5 324.127 5.43581 324.127 5.9743C324.127 6.51278 324.563 6.94859 325.101 6.94859C325.64 6.94859 326.076 6.51278 326.076 5.9743C326.076 5.43581 325.64 5 325.101 5Z" fill="#DD0403"/>
<path d="M330.821 6.94859C331.36 6.94859 331.796 6.51238 331.796 5.9743C331.796 5.43621 331.36 5 330.821 5C330.283 5 329.847 5.43621 329.847 5.9743C329.847 6.51238 330.283 6.94859 330.821 6.94859Z" fill="#DD0403"/>
<path d="M330.821 12.2743C331.36 12.2743 331.796 11.8381 331.796 11.3C331.796 10.7619 331.36 10.3257 330.821 10.3257C330.283 10.3257 329.847 10.7619 329.847 11.3C329.847 11.8381 330.283 12.2743 330.821 12.2743Z" fill="#DD0403"/>
<path d="M336.512 6.94859C337.05 6.94859 337.486 6.51238 337.486 5.9743C337.486 5.43621 337.05 5 336.512 5C335.974 5 335.538 5.43621 335.538 5.9743C335.538 6.51238 335.974 6.94859 336.512 6.94859Z" fill="#DD0403"/>
<path d="M336.512 12.2743C337.05 12.2743 337.486 11.8381 337.486 11.3C337.486 10.7619 337.05 10.3257 336.512 10.3257C335.974 10.3257 335.538 10.7619 335.538 11.3C335.538 11.8381 335.974 12.2743 336.512 12.2743Z" fill="#DD0403"/>
<path d="M342.205 10.3232C341.666 10.3232 341.23 10.7591 341.23 11.2975C341.23 11.836 341.666 12.2718 342.205 12.2718C342.743 12.2718 343.179 11.836 343.179 11.2975C343.179 10.7591 342.743 10.3232 342.205 10.3232Z" fill="#DD0403"/>
<path d="M347.896 5C347.357 5 346.921 5.43581 346.921 5.9743C346.921 6.51278 347.357 6.94859 347.896 6.94859C348.434 6.94859 348.87 6.51278 348.87 5.9743C348.87 5.43581 348.434 5 347.896 5Z" fill="#DD0403"/>
<path d="M353.589 5C353.05 5 352.614 5.43581 352.614 5.9743C352.614 6.51278 353.05 6.94859 353.589 6.94859C354.127 6.94859 354.563 6.51278 354.563 5.9743C354.563 5.43581 354.127 5 353.589 5Z" fill="#DD0403"/>
<path d="M353.589 10.3232C353.05 10.3232 352.614 10.7591 352.614 11.2975C352.614 11.836 353.05 12.2718 353.589 12.2718C354.127 12.2718 354.563 11.836 354.563 11.2975C354.563 10.7591 354.127 10.3232 353.589 10.3232Z" fill="#DD0403"/>
</g>
<g clip-path="url(#clip3_5093_12)">
<path d="M35.8691 15.8662C36.4186 15.8662 36.8633 16.3109 36.8633 16.8604C36.8633 17.4099 36.4186 17.8546 35.8691 17.8546C35.3196 17.8546 34.8749 17.4099 34.8749 16.8604C34.8749 16.3109 35.3196 15.8662 35.8691 15.8662Z" fill="#DD0403"/>
<path d="M30.0322 17.8546C29.4831 17.8546 29.038 17.4095 29.038 16.8604C29.038 16.3113 29.4831 15.8662 30.0322 15.8662C30.5813 15.8662 31.0264 16.3113 31.0264 16.8604C31.0264 17.4095 30.5813 17.8546 30.0322 17.8546Z" fill="#DD0403"/>
<path d="M30.0322 23.2867C29.4831 23.2867 29.038 22.8416 29.038 22.2925C29.038 21.7434 29.4831 21.2983 30.0322 21.2983C30.5813 21.2983 31.0264 21.7434 31.0264 22.2925C31.0264 22.8416 30.5813 23.2867 30.0322 23.2867Z" fill="#DD0403"/>
<path d="M24.2255 17.8546C23.6765 17.8546 23.2314 17.4095 23.2314 16.8604C23.2314 16.3113 23.6765 15.8662 24.2255 15.8662C24.7746 15.8662 25.2197 16.3113 25.2197 16.8604C25.2197 17.4095 24.7746 17.8546 24.2255 17.8546Z" fill="#DD0403"/>
<path d="M24.2255 23.2867C23.6765 23.2867 23.2314 22.8416 23.2314 22.2925C23.2314 21.7434 23.6765 21.2983 24.2255 21.2983C24.7746 21.2983 25.2197 21.7434 25.2197 22.2925C25.2197 22.8416 24.7746 23.2867 24.2255 23.2867Z" fill="#DD0403"/>
<path d="M18.4165 21.2983C18.9659 21.2983 19.4106 21.743 19.4106 22.2925C19.4106 22.842 18.9659 23.2867 18.4165 23.2867C17.867 23.2867 17.4223 22.842 17.4223 22.2925C17.4223 21.743 17.867 21.2983 18.4165 21.2983Z" fill="#DD0403"/>
<path d="M12.6098 15.8662C13.1593 15.8662 13.604 16.3109 13.604 16.8604C13.604 17.4099 13.1593 17.8546 12.6098 17.8546C12.0603 17.8546 11.6156 17.4099 11.6156 16.8604C11.6156 16.3109 12.0603 15.8662 12.6098 15.8662Z" fill="#DD0403"/>
<path d="M6.80074 15.8662C7.35022 15.8662 7.79492 16.3109 7.79492 16.8604C7.79492 17.4099 7.35022 17.8546 6.80074 17.8546C6.25127 17.8546 5.80656 17.4099 5.80656 16.8604C5.80656 16.3109 6.25127 15.8662 6.80074 15.8662Z" fill="#DD0403"/>
<path d="M0.994101 17.8546C0.444625 17.8546 -7.93934e-05 17.4099 -7.93934e-05 16.8604C-7.93934e-05 16.3109 0.444625 15.8662 0.994101 15.8662C1.54358 15.8662 1.98828 16.3109 1.98828 16.8604C1.98828 17.4099 1.54358 17.8546 0.994101 17.8546Z" fill="#DD0403"/>
<path d="M0.994101 21.2983C1.54358 21.2983 1.98828 21.743 1.98828 22.2925C1.98828 22.842 1.54358 23.2867 0.994101 23.2867C0.444625 23.2867 -7.93934e-05 22.842 -7.93934e-05 22.2925C-7.93934e-05 21.743 0.444625 21.2983 0.994101 21.2983Z" fill="#DD0403"/>
<path d="M35.8691 5C36.4186 5 36.8633 5.4447 36.8633 5.99418C36.8633 6.54366 36.4186 6.98836 35.8691 6.98836C35.3196 6.98836 34.8749 6.54366 34.8749 5.99418C34.8749 5.4447 35.3196 5 35.8691 5Z" fill="#DD0403"/>
<path d="M30.0322 6.98836C29.4831 6.98836 29.038 6.54325 29.038 5.99418C29.038 5.44511 29.4831 5 30.0322 5C30.5813 5 31.0264 5.44511 31.0264 5.99418C31.0264 6.54325 30.5813 6.98836 30.0322 6.98836Z" fill="#DD0403"/>
<path d="M30.0322 12.4229C29.4831 12.4229 29.038 11.9778 29.038 11.4287C29.038 10.8797 29.4831 10.4346 30.0322 10.4346C30.5813 10.4346 31.0264 10.8797 31.0264 11.4287C31.0264 11.9778 30.5813 12.4229 30.0322 12.4229Z" fill="#DD0403"/>
<path d="M24.2255 6.98836C23.6765 6.98836 23.2314 6.54325 23.2314 5.99418C23.2314 5.44511 23.6765 5 24.2255 5C24.7746 5 25.2197 5.44511 25.2197 5.99418C25.2197 6.54325 24.7746 6.98836 24.2255 6.98836Z" fill="#DD0403"/>
<path d="M24.2255 12.4229C23.6765 12.4229 23.2314 11.9778 23.2314 11.4287C23.2314 10.8797 23.6765 10.4346 24.2255 10.4346C24.7746 10.4346 25.2197 10.8797 25.2197 11.4287C25.2197 11.9778 24.7746 12.4229 24.2255 12.4229Z" fill="#DD0403"/>
<path d="M18.4165 10.4316C18.9659 10.4316 19.4106 10.8763 19.4106 11.4258C19.4106 11.9753 18.9659 12.42 18.4165 12.42C17.867 12.42 17.4223 11.9753 17.4223 11.4258C17.4223 10.8763 17.867 10.4316 18.4165 10.4316Z" fill="#DD0403"/>
<path d="M12.6098 5C13.1593 5 13.604 5.4447 13.604 5.99418C13.604 6.54366 13.1593 6.98836 12.6098 6.98836C12.0603 6.98836 11.6156 6.54366 11.6156 5.99418C11.6156 5.4447 12.0603 5 12.6098 5Z" fill="#DD0403"/>
<path d="M6.80074 5C7.35022 5 7.79492 5.4447 7.79492 5.99418C7.79492 6.54366 7.35022 6.98836 6.80074 6.98836C6.25127 6.98836 5.80656 6.54366 5.80656 5.99418C5.80656 5.4447 6.25127 5 6.80074 5Z" fill="#DD0403"/>
<path d="M6.80074 10.4316C7.35022 10.4316 7.79492 10.8763 7.79492 11.4258C7.79492 11.9753 7.35022 12.42 6.80074 12.42C6.25127 12.42 5.80656 11.9753 5.80656 11.4258C5.80656 10.8763 6.25127 10.4316 6.80074 10.4316Z" fill="#DD0403"/>
</g>
<g clip-path="url(#clip4_5093_12)">
<path d="M123.167 5.13663C122.52 5.11102 118.348 5.03651 117.854 4.90614C115.831 4.37299 114.981 2.91556 114.981 0.0751953C114.981 3.7537 113.663 5.11334 110.041 5.14594C106.418 5.11334 105.1 3.7537 105.1 0.0751953C105.1 3.79793 103.752 5.14827 100.027 5.14827C103.75 5.14827 105.1 6.49627 105.1 10.2213C105.1 6.54284 106.418 5.18319 110.041 5.15059C113.663 5.18319 114.981 6.54284 114.981 10.2213C114.981 7.36934 115.838 5.90958 117.882 5.38341C118.369 5.25769 122.529 5.18552 123.165 5.15991C123.346 5.15292 127.739 5.14827 127.933 5.14827C127.742 5.14827 123.346 5.14361 123.167 5.13663Z" fill="#DD0403"/>
<path d="M94.9516 0.0751953C94.9516 2.91323 94.1018 4.37299 92.0786 4.90614C91.5851 5.03651 87.413 5.11102 86.7658 5.13663C86.5865 5.14361 82.1932 5.14827 82 5.14827C82.1932 5.14827 86.5888 5.15292 86.7681 5.15991C87.4013 5.18552 91.5641 5.25769 92.0507 5.38341C94.0948 5.90958 94.9516 7.36934 94.9516 10.2213C94.9516 6.4986 96.2996 5.14827 100.025 5.14827C96.3019 5.14827 94.9516 3.80026 94.9516 0.0751953Z" fill="#DD0403"/>
</g>
<g clip-path="url(#clip5_5093_12)">
<path d="M173.523 5.13663C172.876 5.11102 168.704 5.03651 168.21 4.90614C166.187 4.37299 165.337 2.91556 165.337 0.0751953C165.337 3.7537 164.019 5.11334 160.397 5.14594C156.774 5.11334 155.456 3.7537 155.456 0.0751953C155.456 3.79793 154.108 5.14827 150.383 5.14827C154.106 5.14827 155.456 6.49627 155.456 10.2213C155.456 6.54284 156.774 5.18319 160.397 5.15059C164.019 5.18319 165.337 6.54284 165.337 10.2213C165.337 7.36934 166.194 5.90958 168.238 5.38341C168.725 5.25769 172.885 5.18552 173.521 5.15991C173.702 5.15292 178.095 5.14827 178.289 5.14827C178.098 5.14827 173.702 5.14361 173.523 5.13663Z" fill="#DD0403"/>
<path d="M145.308 0.0751953C145.308 2.91323 144.458 4.37299 142.435 4.90614C141.941 5.03651 137.769 5.11102 137.122 5.13663C136.942 5.14361 132.549 5.14827 132.356 5.14827C132.549 5.14827 136.945 5.15292 137.124 5.15991C137.757 5.18552 141.92 5.25769 142.407 5.38341C144.451 5.90958 145.308 7.36934 145.308 10.2213C145.308 6.4986 146.656 5.14827 150.381 5.14827C146.658 5.14827 145.308 3.80026 145.308 0.0751953Z" fill="#DD0403"/>
</g>
<g clip-path="url(#clip6_5093_12)">
<path d="M223.878 5.13663C223.231 5.11102 219.059 5.03651 218.566 4.90614C216.542 4.37299 215.693 2.91556 215.693 0.0751953C215.693 3.7537 214.375 5.11334 210.752 5.14594C207.13 5.11334 205.812 3.7537 205.812 0.0751953C205.812 3.79793 204.464 5.14827 200.739 5.14827C204.462 5.14827 205.812 6.49627 205.812 10.2213C205.812 6.54284 207.13 5.18319 210.752 5.15059C214.375 5.18319 215.693 6.54284 215.693 10.2213C215.693 7.36934 216.549 5.90958 218.593 5.38341C219.08 5.25769 223.24 5.18552 223.876 5.15991C224.058 5.15292 228.451 5.14827 228.644 5.14827C228.453 5.14827 224.058 5.14361 223.878 5.13663Z" fill="#DD0403"/>
<path d="M195.663 0.0751953C195.663 2.91323 194.814 4.37299 192.791 4.90614C192.297 5.03651 188.125 5.11102 187.478 5.13663C187.298 5.14361 182.905 5.14827 182.712 5.14827C182.905 5.14827 187.301 5.15292 187.48 5.15991C188.113 5.18552 192.276 5.25769 192.763 5.38341C194.807 5.90958 195.663 7.36934 195.663 10.2213C195.663 6.4986 197.012 5.14827 200.737 5.14827C197.014 5.14827 195.663 3.80026 195.663 0.0751953Z" fill="#DD0403"/>
</g>
<g clip-path="url(#clip7_5093_12)">
<path d="M274.234 5.13663C273.587 5.11102 269.415 5.03651 268.921 4.90614C266.898 4.37299 266.049 2.91556 266.049 0.0751953C266.049 3.7537 264.731 5.11334 261.108 5.14594C257.486 5.11334 256.168 3.7537 256.168 0.0751953C256.168 3.79793 254.82 5.14827 251.095 5.14827C254.817 5.14827 256.168 6.49627 256.168 10.2213C256.168 6.54284 257.486 5.18319 261.108 5.15059C264.731 5.18319 266.049 6.54284 266.049 10.2213C266.049 7.36934 266.905 5.90958 268.949 5.38341C269.436 5.25769 273.596 5.18552 274.232 5.15991C274.414 5.15292 278.807 5.14827 279 5.14827C278.809 5.14827 274.414 5.14361 274.234 5.13663Z" fill="#DD0403"/>
<path d="M246.019 0.0751953C246.019 2.91323 245.169 4.37299 243.146 4.90614C242.652 5.03651 238.48 5.11102 237.833 5.13663C237.654 5.14361 233.261 5.14827 233.067 5.14827C233.261 5.14827 237.656 5.15292 237.835 5.15991C238.469 5.18552 242.631 5.25769 243.118 5.38341C245.162 5.90958 246.019 7.36934 246.019 10.2213C246.019 6.4986 247.367 5.14827 251.092 5.14827C247.369 5.14827 246.019 3.80026 246.019 0.0751953Z" fill="#DD0403"/>
</g>
<path d="M84.5 14.5L58.5 57.5H310L282.5 14.5H84.5Z" fill="#DD0403" stroke="#D70403"/>
<defs>
<clipPath id="clip0_5093_12">
<rect width="44.2266" height="9.52619" fill="white" transform="translate(359.227 54) rotate(-180)"/>
</clipPath>
<clipPath id="clip1_5093_12">
<rect width="45.1292" height="9.72061" fill="white" transform="matrix(1 -8.74228e-08 -8.74228e-08 -1 1.04688 55)"/>
</clipPath>
<clipPath id="clip2_5093_12">
<rect width="36.1265" height="17.9229" fill="white" transform="translate(324.127 5)"/>
</clipPath>
<clipPath id="clip3_5093_12">
<rect width="36.8638" height="18.2887" fill="white" transform="matrix(-1 0 0 1 36.8633 5)"/>
</clipPath>
<clipPath id="clip4_5093_12">
<rect width="45.9324" height="10.1438" fill="white" transform="translate(82 0.0751953)"/>
</clipPath>
<clipPath id="clip5_5093_12">
<rect width="45.9324" height="10.1438" fill="white" transform="translate(132.356 0.0751953)"/>
</clipPath>
<clipPath id="clip6_5093_12">
<rect width="45.9324" height="10.1438" fill="white" transform="translate(182.712 0.0751953)"/>
</clipPath>
<clipPath id="clip7_5093_12">
<rect width="45.9324" height="10.1438" fill="white" transform="translate(233.067 0.0751953)"/>
</clipPath>
</defs>
</svg>
