<svg width="1840" height="67" viewBox="0 0 1840 67" fill="none" xmlns="http://www.w3.org/2000/svg">
<g clip-path="url(#clip0_5114_3)">
<path d="M3.61 7.22H34.58C36.57 7.22 38.19 5.6 38.19 3.61C38.19 1.62 36.57 0 34.58 0H3.61C1.62 0 0 1.62 0 3.61C0 5.6 1.62 7.22 3.61 7.22Z" fill="#DD0403"/>
<path d="M70.86 7.22H131.22C133.21 7.22 134.83 5.6 134.83 3.61C134.83 1.62 133.21 0 131.22 0H70.86C68.87 0 67.25 1.62 67.25 3.61C67.25 5.6 68.87 7.22 70.86 7.22Z" fill="#DD0403"/>
<path d="M106.01 59.1797H67.15C65.16 59.1797 63.54 60.7997 63.54 62.7897C63.54 64.7797 65.16 66.3997 67.15 66.3997H106.01C108 66.3997 109.62 64.7797 109.62 62.7897C109.62 60.7997 108 59.1797 106.01 59.1797Z" fill="#DD0403"/>
<path d="M42.5401 59.1104H3.68007C1.69007 59.1104 0.0700684 60.7304 0.0700684 62.7204C0.0700684 64.7104 1.69007 66.3304 3.68007 66.3304H42.5401C44.5301 66.3304 46.1501 64.7104 46.1501 62.7204C46.1501 60.7304 44.5301 59.1104 42.5401 59.1104Z" fill="#DD0403"/>
<path d="M203.7 0H195.99C194 0 192.38 1.62 192.38 3.61C192.38 5.6 194 7.22 195.99 7.22H203.7C205.69 7.22 207.31 5.6 207.31 3.61C207.31 1.62 205.69 0 203.7 0Z" fill="#DD0403"/>
<path d="M174.78 3.61C174.78 1.62 173.16 0 171.17 0H147.26C145.27 0 143.65 1.62 143.65 3.61C143.65 5.6 145.27 7.22 147.26 7.22H171.17C173.16 7.22 174.78 5.6 174.78 3.61Z" fill="#DD0403"/>
<path d="M131.58 33.1998C131.58 31.2098 129.96 29.5898 127.97 29.5898H118.92C116.93 29.5898 115.31 31.2098 115.31 33.1998C115.31 35.1898 116.93 36.8098 118.92 36.8098H127.97C129.96 36.8098 131.58 35.1898 131.58 33.1998Z" fill="#DD0403"/>
<path d="M179.13 33.1998C179.13 31.2098 177.51 29.5898 175.52 29.5898H155.37C153.38 29.5898 151.76 31.2098 151.76 33.1998C151.76 35.1898 153.38 36.8098 155.37 36.8098H175.52C177.51 36.8098 179.13 35.1898 179.13 33.1998Z" fill="#DD0403"/>
<path d="M143.02 59.1797H133.38C131.39 59.1797 129.77 60.7997 129.77 62.7897C129.77 64.7797 131.39 66.3997 133.38 66.3997H143.02C145.01 66.3997 146.63 64.7797 146.63 62.7897C146.63 60.7997 145.01 59.1797 143.02 59.1797Z" fill="#DD0403"/>
<path d="M191.18 59.1797H181.54C179.55 59.1797 177.93 60.7997 177.93 62.7897C177.93 64.7797 179.55 66.3997 181.54 66.3997H191.18C193.17 66.3997 194.79 64.7797 194.79 62.7897C194.79 60.7997 193.17 59.1797 191.18 59.1797Z" fill="#DD0403"/>
<path d="M239.34 59.1797H216.45C214.46 59.1797 212.84 60.7997 212.84 62.7897C212.84 64.7797 214.46 66.3997 216.45 66.3997H239.34C241.33 66.3997 242.95 64.7797 242.95 62.7897C242.95 60.7997 241.33 59.1797 239.34 59.1797Z" fill="#DD0403"/>
<path d="M237.75 33.1998C237.75 31.2098 236.13 29.5898 234.14 29.5898H211.25C209.26 29.5898 207.64 31.2098 207.64 33.1998C207.64 35.1898 209.26 36.8098 211.25 36.8098H234.14C236.13 36.8098 237.75 35.1898 237.75 33.1998Z" fill="#DD0403"/>
<path d="M271.45 59.1797H260.71C258.72 59.1797 257.1 60.7997 257.1 62.7897C257.1 64.7797 258.72 66.3997 260.71 66.3997H271.45C273.44 66.3997 275.06 64.7797 275.06 62.7897C275.06 60.7997 273.44 59.1797 271.45 59.1797Z" fill="#DD0403"/>
<path d="M271.45 29.5898H260.71C258.72 29.5898 257.1 31.2098 257.1 33.1998C257.1 35.1898 258.72 36.8098 260.71 36.8098H271.45C273.44 36.8098 275.06 35.1898 275.06 33.1998C275.06 31.2098 273.44 29.5898 271.45 29.5898Z" fill="#DD0403"/>
<path d="M271.61 0H247.7C245.71 0 244.09 1.62 244.09 3.61C244.09 5.6 245.71 7.22 247.7 7.22H271.61C273.6 7.22 275.22 5.6 275.22 3.61C275.22 1.62 273.6 0 271.61 0Z" fill="#DD0403"/>
<path d="M72.93 33.1998C72.93 31.2098 71.31 29.5898 69.32 29.5898H57.86C55.87 29.5898 54.25 31.2098 54.25 33.1998C54.25 35.1898 55.87 36.8098 57.86 36.8098H69.32C71.31 36.8098 72.93 35.1898 72.93 33.1998Z" fill="#DD0403"/>
<path d="M80.85 29.5898C78.86 29.5898 77.24 31.2098 77.24 33.1998C77.24 35.1898 78.86 36.8098 80.85 36.8098H92.31C94.3 36.8098 95.92 35.1898 95.92 33.1998C95.92 31.2098 94.3 29.5898 92.31 29.5898H80.85Z" fill="#DD0403"/>
<path d="M3.61 36.8098H16.78C18.77 36.8098 20.39 35.1898 20.39 33.1998C20.39 31.2098 18.77 29.5898 16.78 29.5898H3.61C1.62 29.5898 0 31.2098 0 33.1998C0 35.1898 1.62 36.8098 3.61 36.8098Z" fill="#DD0403"/>
<path d="M296.36 7.22H327.33C329.32 7.22 330.94 5.6 330.94 3.61C330.94 1.62 329.32 0 327.33 0H296.36C294.37 0 292.75 1.62 292.75 3.61C292.75 5.6 294.37 7.22 296.36 7.22Z" fill="#DD0403"/>
<path d="M363.61 7.22H423.97C425.96 7.22 427.58 5.6 427.58 3.61C427.58 1.62 425.96 0 423.97 0H363.61C361.62 0 360 1.62 360 3.61C360 5.6 361.62 7.22 363.61 7.22Z" fill="#DD0403"/>
<path d="M398.76 59.1797H359.9C357.91 59.1797 356.29 60.7997 356.29 62.7897C356.29 64.7797 357.91 66.3997 359.9 66.3997H398.76C400.75 66.3997 402.37 64.7797 402.37 62.7897C402.37 60.7997 400.75 59.1797 398.76 59.1797Z" fill="#DD0403"/>
<path d="M335.28 59.1104H296.42C294.43 59.1104 292.81 60.7304 292.81 62.7204C292.81 64.7104 294.43 66.3304 296.42 66.3304H335.28C337.27 66.3304 338.89 64.7104 338.89 62.7204C338.89 60.7304 337.27 59.1104 335.28 59.1104Z" fill="#DD0403"/>
<path d="M496.44 0H488.73C486.74 0 485.12 1.62 485.12 3.61C485.12 5.6 486.74 7.22 488.73 7.22H496.44C498.43 7.22 500.05 5.6 500.05 3.61C500.05 1.62 498.43 0 496.44 0Z" fill="#DD0403"/>
<path d="M467.53 3.61C467.53 1.62 465.91 0 463.92 0H440.01C438.02 0 436.4 1.62 436.4 3.61C436.4 5.6 438.02 7.22 440.01 7.22H463.92C465.91 7.22 467.53 5.6 467.53 3.61Z" fill="#DD0403"/>
<path d="M424.33 33.1998C424.33 31.2098 422.71 29.5898 420.72 29.5898H411.67C409.68 29.5898 408.06 31.2098 408.06 33.1998C408.06 35.1898 409.68 36.8098 411.67 36.8098H420.72C422.71 36.8098 424.33 35.1898 424.33 33.1998Z" fill="#DD0403"/>
<path d="M471.88 33.1998C471.88 31.2098 470.26 29.5898 468.27 29.5898H448.12C446.13 29.5898 444.51 31.2098 444.51 33.1998C444.51 35.1898 446.13 36.8098 448.12 36.8098H468.27C470.26 36.8098 471.88 35.1898 471.88 33.1998Z" fill="#DD0403"/>
<path d="M435.77 59.1797H426.13C424.14 59.1797 422.52 60.7997 422.52 62.7897C422.52 64.7797 424.14 66.3997 426.13 66.3997H435.77C437.76 66.3997 439.38 64.7797 439.38 62.7897C439.38 60.7997 437.76 59.1797 435.77 59.1797Z" fill="#DD0403"/>
<path d="M483.93 59.1797H474.29C472.3 59.1797 470.68 60.7997 470.68 62.7897C470.68 64.7797 472.3 66.3997 474.29 66.3997H483.93C485.92 66.3997 487.54 64.7797 487.54 62.7897C487.54 60.7997 485.92 59.1797 483.93 59.1797Z" fill="#DD0403"/>
<path d="M532.09 59.1797H509.2C507.21 59.1797 505.59 60.7997 505.59 62.7897C505.59 64.7797 507.21 66.3997 509.2 66.3997H532.09C534.08 66.3997 535.7 64.7797 535.7 62.7897C535.7 60.7997 534.08 59.1797 532.09 59.1797Z" fill="#DD0403"/>
<path d="M530.5 33.1998C530.5 31.2098 528.88 29.5898 526.89 29.5898H504C502.01 29.5898 500.39 31.2098 500.39 33.1998C500.39 35.1898 502.01 36.8098 504 36.8098H526.89C528.88 36.8098 530.5 35.1898 530.5 33.1998Z" fill="#DD0403"/>
<path d="M564.2 59.1797H553.46C551.47 59.1797 549.85 60.7997 549.85 62.7897C549.85 64.7797 551.47 66.3997 553.46 66.3997H564.2C566.19 66.3997 567.81 64.7797 567.81 62.7897C567.81 60.7997 566.19 59.1797 564.2 59.1797Z" fill="#DD0403"/>
<path d="M564.2 29.5898H553.46C551.47 29.5898 549.85 31.2098 549.85 33.1998C549.85 35.1898 551.47 36.8098 553.46 36.8098H564.2C566.19 36.8098 567.81 35.1898 567.81 33.1998C567.81 31.2098 566.19 29.5898 564.2 29.5898Z" fill="#DD0403"/>
<path d="M567.97 3.61C567.97 1.62 566.35 0 564.36 0H540.45C538.46 0 536.84 1.62 536.84 3.61C536.84 5.6 538.46 7.22 540.45 7.22H564.36C566.35 7.22 567.97 5.6 567.97 3.61Z" fill="#DD0403"/>
<path d="M365.68 33.1998C365.68 31.2098 364.06 29.5898 362.07 29.5898H350.61C348.62 29.5898 347 31.2098 347 33.1998C347 35.1898 348.62 36.8098 350.61 36.8098H362.07C364.06 36.8098 365.68 35.1898 365.68 33.1998Z" fill="#DD0403"/>
<path d="M373.6 29.5898C371.61 29.5898 369.99 31.2098 369.99 33.1998C369.99 35.1898 371.61 36.8098 373.6 36.8098H385.06C387.05 36.8098 388.67 35.1898 388.67 33.1998C388.67 31.2098 387.05 29.5898 385.06 29.5898H373.6Z" fill="#DD0403"/>
<path d="M296.36 36.8098H309.53C311.52 36.8098 313.14 35.1898 313.14 33.1998C313.14 31.2098 311.52 29.5898 309.53 29.5898H296.36C294.37 29.5898 292.75 31.2098 292.75 33.1998C292.75 35.1898 294.37 36.8098 296.36 36.8098Z" fill="#DD0403"/>
</g>
<g clip-path="url(#clip1_5114_3)">
<path d="M1275.61 7.22H1306.58C1308.57 7.22 1310.19 5.6 1310.19 3.61C1310.19 1.62 1308.57 0 1306.58 0H1275.61C1273.62 0 1272 1.62 1272 3.61C1272 5.6 1273.62 7.22 1275.61 7.22Z" fill="#DD0403"/>
<path d="M1342.86 7.22H1403.22C1405.21 7.22 1406.83 5.6 1406.83 3.61C1406.83 1.62 1405.21 0 1403.22 0H1342.86C1340.87 0 1339.25 1.62 1339.25 3.61C1339.25 5.6 1340.87 7.22 1342.86 7.22Z" fill="#DD0403"/>
<path d="M1378.01 59.1797H1339.15C1337.16 59.1797 1335.54 60.7997 1335.54 62.7897C1335.54 64.7797 1337.16 66.3997 1339.15 66.3997H1378.01C1380 66.3997 1381.62 64.7797 1381.62 62.7897C1381.62 60.7997 1380 59.1797 1378.01 59.1797Z" fill="#DD0403"/>
<path d="M1314.54 59.1104H1275.68C1273.69 59.1104 1272.07 60.7304 1272.07 62.7204C1272.07 64.7104 1273.69 66.3304 1275.68 66.3304H1314.54C1316.53 66.3304 1318.15 64.7104 1318.15 62.7204C1318.15 60.7304 1316.53 59.1104 1314.54 59.1104Z" fill="#DD0403"/>
<path d="M1475.7 0H1467.99C1466 0 1464.38 1.62 1464.38 3.61C1464.38 5.6 1466 7.22 1467.99 7.22H1475.7C1477.69 7.22 1479.31 5.6 1479.31 3.61C1479.31 1.62 1477.69 0 1475.7 0Z" fill="#DD0403"/>
<path d="M1446.78 3.61C1446.78 1.62 1445.16 0 1443.17 0H1419.26C1417.27 0 1415.65 1.62 1415.65 3.61C1415.65 5.6 1417.27 7.22 1419.26 7.22H1443.17C1445.16 7.22 1446.78 5.6 1446.78 3.61Z" fill="#DD0403"/>
<path d="M1403.58 33.1998C1403.58 31.2098 1401.96 29.5898 1399.97 29.5898H1390.92C1388.93 29.5898 1387.31 31.2098 1387.31 33.1998C1387.31 35.1898 1388.93 36.8098 1390.92 36.8098H1399.97C1401.96 36.8098 1403.58 35.1898 1403.58 33.1998Z" fill="#DD0403"/>
<path d="M1451.13 33.1998C1451.13 31.2098 1449.51 29.5898 1447.52 29.5898H1427.37C1425.38 29.5898 1423.76 31.2098 1423.76 33.1998C1423.76 35.1898 1425.38 36.8098 1427.37 36.8098H1447.52C1449.51 36.8098 1451.13 35.1898 1451.13 33.1998Z" fill="#DD0403"/>
<path d="M1415.02 59.1797H1405.38C1403.39 59.1797 1401.77 60.7997 1401.77 62.7897C1401.77 64.7797 1403.39 66.3997 1405.38 66.3997H1415.02C1417.01 66.3997 1418.63 64.7797 1418.63 62.7897C1418.63 60.7997 1417.01 59.1797 1415.02 59.1797Z" fill="#DD0403"/>
<path d="M1463.18 59.1797H1453.54C1451.55 59.1797 1449.93 60.7997 1449.93 62.7897C1449.93 64.7797 1451.55 66.3997 1453.54 66.3997H1463.18C1465.17 66.3997 1466.79 64.7797 1466.79 62.7897C1466.79 60.7997 1465.17 59.1797 1463.18 59.1797Z" fill="#DD0403"/>
<path d="M1511.34 59.1797H1488.45C1486.46 59.1797 1484.84 60.7997 1484.84 62.7897C1484.84 64.7797 1486.46 66.3997 1488.45 66.3997H1511.34C1513.33 66.3997 1514.95 64.7797 1514.95 62.7897C1514.95 60.7997 1513.33 59.1797 1511.34 59.1797Z" fill="#DD0403"/>
<path d="M1509.75 33.1998C1509.75 31.2098 1508.13 29.5898 1506.14 29.5898H1483.25C1481.26 29.5898 1479.64 31.2098 1479.64 33.1998C1479.64 35.1898 1481.26 36.8098 1483.25 36.8098H1506.14C1508.13 36.8098 1509.75 35.1898 1509.75 33.1998Z" fill="#DD0403"/>
<path d="M1543.45 59.1797H1532.71C1530.72 59.1797 1529.1 60.7997 1529.1 62.7897C1529.1 64.7797 1530.72 66.3997 1532.71 66.3997H1543.45C1545.44 66.3997 1547.06 64.7797 1547.06 62.7897C1547.06 60.7997 1545.44 59.1797 1543.45 59.1797Z" fill="#DD0403"/>
<path d="M1543.45 29.5898H1532.71C1530.72 29.5898 1529.1 31.2098 1529.1 33.1998C1529.1 35.1898 1530.72 36.8098 1532.71 36.8098H1543.45C1545.44 36.8098 1547.06 35.1898 1547.06 33.1998C1547.06 31.2098 1545.44 29.5898 1543.45 29.5898Z" fill="#DD0403"/>
<path d="M1543.61 0H1519.7C1517.71 0 1516.09 1.62 1516.09 3.61C1516.09 5.6 1517.71 7.22 1519.7 7.22H1543.61C1545.6 7.22 1547.22 5.6 1547.22 3.61C1547.22 1.62 1545.6 0 1543.61 0Z" fill="#DD0403"/>
<path d="M1344.93 33.1998C1344.93 31.2098 1343.31 29.5898 1341.32 29.5898H1329.86C1327.87 29.5898 1326.25 31.2098 1326.25 33.1998C1326.25 35.1898 1327.87 36.8098 1329.86 36.8098H1341.32C1343.31 36.8098 1344.93 35.1898 1344.93 33.1998Z" fill="#DD0403"/>
<path d="M1352.85 29.5898C1350.86 29.5898 1349.24 31.2098 1349.24 33.1998C1349.24 35.1898 1350.86 36.8098 1352.85 36.8098H1364.31C1366.3 36.8098 1367.92 35.1898 1367.92 33.1998C1367.92 31.2098 1366.3 29.5898 1364.31 29.5898H1352.85Z" fill="#DD0403"/>
<path d="M1275.61 36.8098H1288.78C1290.77 36.8098 1292.39 35.1898 1292.39 33.1998C1292.39 31.2098 1290.77 29.5898 1288.78 29.5898H1275.61C1273.62 29.5898 1272 31.2098 1272 33.1998C1272 35.1898 1273.62 36.8098 1275.61 36.8098Z" fill="#DD0403"/>
<path d="M1568.36 7.22H1599.33C1601.32 7.22 1602.94 5.6 1602.94 3.61C1602.94 1.62 1601.32 0 1599.33 0H1568.36C1566.37 0 1564.75 1.62 1564.75 3.61C1564.75 5.6 1566.37 7.22 1568.36 7.22Z" fill="#DD0403"/>
<path d="M1635.61 7.22H1695.97C1697.96 7.22 1699.58 5.6 1699.58 3.61C1699.58 1.62 1697.96 0 1695.97 0H1635.61C1633.62 0 1632 1.62 1632 3.61C1632 5.6 1633.62 7.22 1635.61 7.22Z" fill="#DD0403"/>
<path d="M1670.76 59.1797H1631.9C1629.91 59.1797 1628.29 60.7997 1628.29 62.7897C1628.29 64.7797 1629.91 66.3997 1631.9 66.3997H1670.76C1672.75 66.3997 1674.37 64.7797 1674.37 62.7897C1674.37 60.7997 1672.75 59.1797 1670.76 59.1797Z" fill="#DD0403"/>
<path d="M1607.28 59.1104H1568.42C1566.43 59.1104 1564.81 60.7304 1564.81 62.7204C1564.81 64.7104 1566.43 66.3304 1568.42 66.3304H1607.28C1609.27 66.3304 1610.89 64.7104 1610.89 62.7204C1610.89 60.7304 1609.27 59.1104 1607.28 59.1104Z" fill="#DD0403"/>
<path d="M1768.44 0H1760.73C1758.74 0 1757.12 1.62 1757.12 3.61C1757.12 5.6 1758.74 7.22 1760.73 7.22H1768.44C1770.43 7.22 1772.05 5.6 1772.05 3.61C1772.05 1.62 1770.43 0 1768.44 0Z" fill="#DD0403"/>
<path d="M1739.53 3.61C1739.53 1.62 1737.91 0 1735.92 0H1712.01C1710.02 0 1708.4 1.62 1708.4 3.61C1708.4 5.6 1710.02 7.22 1712.01 7.22H1735.92C1737.91 7.22 1739.53 5.6 1739.53 3.61Z" fill="#DD0403"/>
<path d="M1696.33 33.1998C1696.33 31.2098 1694.71 29.5898 1692.72 29.5898H1683.67C1681.68 29.5898 1680.06 31.2098 1680.06 33.1998C1680.06 35.1898 1681.68 36.8098 1683.67 36.8098H1692.72C1694.71 36.8098 1696.33 35.1898 1696.33 33.1998Z" fill="#DD0403"/>
<path d="M1743.88 33.1998C1743.88 31.2098 1742.26 29.5898 1740.27 29.5898H1720.12C1718.13 29.5898 1716.51 31.2098 1716.51 33.1998C1716.51 35.1898 1718.13 36.8098 1720.12 36.8098H1740.27C1742.26 36.8098 1743.88 35.1898 1743.88 33.1998Z" fill="#DD0403"/>
<path d="M1707.77 59.1797H1698.13C1696.14 59.1797 1694.52 60.7997 1694.52 62.7897C1694.52 64.7797 1696.14 66.3997 1698.13 66.3997H1707.77C1709.76 66.3997 1711.38 64.7797 1711.38 62.7897C1711.38 60.7997 1709.76 59.1797 1707.77 59.1797Z" fill="#DD0403"/>
<path d="M1755.93 59.1797H1746.29C1744.3 59.1797 1742.68 60.7997 1742.68 62.7897C1742.68 64.7797 1744.3 66.3997 1746.29 66.3997H1755.93C1757.92 66.3997 1759.54 64.7797 1759.54 62.7897C1759.54 60.7997 1757.92 59.1797 1755.93 59.1797Z" fill="#DD0403"/>
<path d="M1804.09 59.1797H1781.2C1779.21 59.1797 1777.59 60.7997 1777.59 62.7897C1777.59 64.7797 1779.21 66.3997 1781.2 66.3997H1804.09C1806.08 66.3997 1807.7 64.7797 1807.7 62.7897C1807.7 60.7997 1806.08 59.1797 1804.09 59.1797Z" fill="#DD0403"/>
<path d="M1802.5 33.1998C1802.5 31.2098 1800.88 29.5898 1798.89 29.5898H1776C1774.01 29.5898 1772.39 31.2098 1772.39 33.1998C1772.39 35.1898 1774.01 36.8098 1776 36.8098H1798.89C1800.88 36.8098 1802.5 35.1898 1802.5 33.1998Z" fill="#DD0403"/>
<path d="M1836.2 59.1797H1825.46C1823.47 59.1797 1821.85 60.7997 1821.85 62.7897C1821.85 64.7797 1823.47 66.3997 1825.46 66.3997H1836.2C1838.19 66.3997 1839.81 64.7797 1839.81 62.7897C1839.81 60.7997 1838.19 59.1797 1836.2 59.1797Z" fill="#DD0403"/>
<path d="M1836.2 29.5898H1825.46C1823.47 29.5898 1821.85 31.2098 1821.85 33.1998C1821.85 35.1898 1823.47 36.8098 1825.46 36.8098H1836.2C1838.19 36.8098 1839.81 35.1898 1839.81 33.1998C1839.81 31.2098 1838.19 29.5898 1836.2 29.5898Z" fill="#DD0403"/>
<path d="M1839.97 3.61C1839.97 1.62 1838.35 0 1836.36 0H1812.45C1810.46 0 1808.84 1.62 1808.84 3.61C1808.84 5.6 1810.46 7.22 1812.45 7.22H1836.36C1838.35 7.22 1839.97 5.6 1839.97 3.61Z" fill="#DD0403"/>
<path d="M1637.68 33.1998C1637.68 31.2098 1636.06 29.5898 1634.07 29.5898H1622.61C1620.62 29.5898 1619 31.2098 1619 33.1998C1619 35.1898 1620.62 36.8098 1622.61 36.8098H1634.07C1636.06 36.8098 1637.68 35.1898 1637.68 33.1998Z" fill="#DD0403"/>
<path d="M1645.6 29.5898C1643.61 29.5898 1641.99 31.2098 1641.99 33.1998C1641.99 35.1898 1643.61 36.8098 1645.6 36.8098H1657.06C1659.05 36.8098 1660.67 35.1898 1660.67 33.1998C1660.67 31.2098 1659.05 29.5898 1657.06 29.5898H1645.6Z" fill="#DD0403"/>
<path d="M1568.36 36.8098H1581.53C1583.52 36.8098 1585.14 35.1898 1585.14 33.1998C1585.14 31.2098 1583.52 29.5898 1581.53 29.5898H1568.36C1566.37 29.5898 1564.75 31.2098 1564.75 33.1998C1564.75 35.1898 1566.37 36.8098 1568.36 36.8098Z" fill="#DD0403"/>
</g>
<defs>
<clipPath id="clip0_5114_3">
<rect width="567.97" height="66.4" fill="white"/>
</clipPath>
<clipPath id="clip1_5114_3">
<rect width="567.97" height="66.4" fill="white" transform="translate(1272)"/>
</clipPath>
</defs>
</svg>
