<svg width="361" height="58" viewBox="0 0 361 58" fill="none" xmlns="http://www.w3.org/2000/svg">
<g clip-path="url(#clip0_5093_12)">
<path d="M351.739 46.0611C350.027 47.7737 350.027 50.5505 351.739 52.2631C353.452 53.9757 356.229 53.9757 357.941 52.2631C359.654 50.5505 359.654 47.7737 357.941 46.0611C356.229 44.3485 353.452 44.3485 351.739 46.0611Z" fill="#DD0403"/>
<path d="M319.765 53.9248C321.939 53.9248 323.778 52.4577 324.346 50.4634C324.901 52.25 326.566 53.546 328.536 53.546C330.505 53.546 332.17 52.2477 332.725 50.4634C333.293 52.4599 335.13 53.9248 337.306 53.9248C339.483 53.9248 341.32 52.4577 341.888 50.4634C342.443 52.25 344.108 53.546 346.077 53.546C348.498 53.546 350.463 51.5838 350.463 49.1606C350.463 46.7374 348.501 44.7751 346.077 44.7751C344.108 44.7751 342.443 46.0734 341.888 47.8577C341.32 45.8612 339.483 44.3963 337.306 44.3963C335.13 44.3963 333.293 45.8635 332.725 47.8577C332.17 46.0711 330.505 44.7751 328.536 44.7751C326.566 44.7751 324.901 46.0734 324.346 47.8577C323.778 45.8612 321.941 44.3963 319.765 44.3963C317.138 44.3963 315 46.532 315 49.1606C315 51.7891 317.138 53.9248 319.765 53.9248ZM337.304 45.1561C339.513 45.1561 341.311 46.9541 341.311 49.1628C341.311 51.3716 339.513 53.1673 337.304 53.1673C335.095 53.1673 333.297 51.3693 333.297 49.1606C333.297 46.9519 335.095 45.1539 337.304 45.1539L337.304 45.1561ZM319.765 45.1561C321.973 45.1561 323.771 46.9541 323.771 49.1628C323.771 51.3716 321.973 53.1696 319.765 53.1696C317.556 53.1696 315.758 51.3716 315.758 49.1628C315.758 46.9541 317.556 45.1561 319.765 45.1561Z" fill="#DD0403"/>
</g>
<g clip-path="url(#clip1_5093_12)">
<path d="M8.68767 46.9007C10.4353 48.6482 10.4353 51.4816 8.68767 53.2292C6.94009 54.9768 4.10669 54.9768 2.35911 53.2292C0.611522 51.4816 0.611521 48.6482 2.35911 46.9007C4.10669 45.1531 6.94009 45.1531 8.68767 46.9007Z" fill="#DD0403"/>
<path d="M41.3155 54.9248C39.0967 54.9248 37.2201 53.4277 36.6403 51.3928C36.0745 53.2158 34.3749 54.5383 32.3656 54.5383C30.3563 54.5383 28.6566 53.2135 28.0908 51.3928C27.5111 53.43 25.6368 54.9248 23.4156 54.9248C21.1944 54.9248 19.3202 53.4277 18.7404 51.3928C18.1747 53.2158 16.475 54.5383 14.4657 54.5383C11.9954 54.5383 9.99072 52.536 9.99072 50.0633C9.99072 47.5907 11.9931 45.5884 14.4657 45.5884C16.475 45.5884 18.1747 46.9132 18.7404 48.7339C19.3202 46.6966 21.1944 45.2019 23.4156 45.2019C25.6368 45.2019 27.5111 46.699 28.0908 48.7339C28.6566 46.9108 30.3563 45.5884 32.3656 45.5884C34.3749 45.5884 36.0745 46.9132 36.6403 48.7339C37.2201 46.6966 39.0943 45.2019 41.3155 45.2019C43.9954 45.2019 46.177 47.3811 46.177 50.0633C46.177 52.7455 43.9954 54.9248 41.3155 54.9248ZM23.418 45.9772C21.1642 45.9772 19.3295 47.8119 19.3295 50.0657C19.3295 52.3194 21.1642 54.1518 23.418 54.1518C25.6717 54.1518 27.5064 52.3171 27.5064 50.0633C27.5064 47.8096 25.6717 45.9749 23.418 45.9749L23.418 45.9772ZM41.3155 45.9772C39.0617 45.9772 37.227 47.8119 37.227 50.0657C37.227 52.3194 39.0617 54.1541 41.3155 54.1541C43.5693 54.1541 45.404 52.3194 45.404 50.0657C45.404 47.8119 43.5693 45.9772 41.3155 45.9772Z" fill="#DD0403"/>
</g>
<g clip-path="url(#clip2_5093_12)">
<path d="M325.102 15.5737C324.563 15.5737 324.127 16.0095 324.127 16.548C324.127 17.0865 324.563 17.5223 325.102 17.5223C325.64 17.5223 326.076 17.0865 326.076 16.548C326.076 16.0095 325.64 15.5737 325.102 15.5737Z" fill="#DD0403"/>
<path d="M330.822 17.5223C331.36 17.5223 331.796 17.0861 331.796 16.548C331.796 16.0099 331.36 15.5737 330.822 15.5737C330.284 15.5737 329.848 16.0099 329.848 16.548C329.848 17.0861 330.284 17.5223 330.822 17.5223Z" fill="#DD0403"/>
<path d="M330.822 22.8456C331.36 22.8456 331.796 22.4094 331.796 21.8713C331.796 21.3332 331.36 20.897 330.822 20.897C330.284 20.897 329.848 21.3332 329.848 21.8713C329.848 22.4094 330.284 22.8456 330.822 22.8456Z" fill="#DD0403"/>
<path d="M336.512 17.5223C337.05 17.5223 337.487 17.0861 337.487 16.548C337.487 16.0099 337.05 15.5737 336.512 15.5737C335.974 15.5737 335.538 16.0099 335.538 16.548C335.538 17.0861 335.974 17.5223 336.512 17.5223Z" fill="#DD0403"/>
<path d="M336.512 22.8456C337.05 22.8456 337.487 22.4094 337.487 21.8713C337.487 21.3332 337.05 20.897 336.512 20.897C335.974 20.897 335.538 21.3332 335.538 21.8713C335.538 22.4094 335.974 22.8456 336.512 22.8456Z" fill="#DD0403"/>
<path d="M342.205 20.897C341.667 20.897 341.231 21.3328 341.231 21.8713C341.231 22.4098 341.667 22.8456 342.205 22.8456C342.744 22.8456 343.18 22.4098 343.18 21.8713C343.18 21.3328 342.744 20.897 342.205 20.897Z" fill="#DD0403"/>
<path d="M347.896 15.5737C347.358 15.5737 346.922 16.0095 346.922 16.548C346.922 17.0865 347.358 17.5223 347.896 17.5223C348.435 17.5223 348.87 17.0865 348.87 16.548C348.87 16.0095 348.435 15.5737 347.896 15.5737Z" fill="#DD0403"/>
<path d="M353.589 15.5737C353.051 15.5737 352.615 16.0095 352.615 16.548C352.615 17.0865 353.051 17.5223 353.589 17.5223C354.128 17.5223 354.563 17.0865 354.563 16.548C354.563 16.0095 354.128 15.5737 353.589 15.5737Z" fill="#DD0403"/>
<path d="M359.279 17.5223C359.818 17.5223 360.254 17.0865 360.254 16.548C360.254 16.0095 359.818 15.5737 359.279 15.5737C358.741 15.5737 358.305 16.0095 358.305 16.548C358.305 17.0865 358.741 17.5223 359.279 17.5223Z" fill="#DD0403"/>
<path d="M359.279 20.897C358.741 20.897 358.305 21.3328 358.305 21.8713C358.305 22.4098 358.741 22.8456 359.279 22.8456C359.818 22.8456 360.254 22.4098 360.254 21.8713C360.254 21.3328 359.818 20.897 359.279 20.897Z" fill="#DD0403"/>
<path d="M325.102 4.9248C324.563 4.9248 324.127 5.36061 324.127 5.8991C324.127 6.43759 324.563 6.8734 325.102 6.8734C325.64 6.8734 326.076 6.43759 326.076 5.8991C326.076 5.36061 325.64 4.9248 325.102 4.9248Z" fill="#DD0403"/>
<path d="M330.822 6.8734C331.36 6.8734 331.796 6.43719 331.796 5.8991C331.796 5.36101 331.36 4.9248 330.822 4.9248C330.284 4.9248 329.848 5.36101 329.848 5.8991C329.848 6.43719 330.284 6.8734 330.822 6.8734Z" fill="#DD0403"/>
<path d="M330.822 12.1991C331.36 12.1991 331.796 11.7629 331.796 11.2248C331.796 10.6867 331.36 10.2505 330.822 10.2505C330.284 10.2505 329.848 10.6867 329.848 11.2248C329.848 11.7629 330.284 12.1991 330.822 12.1991Z" fill="#DD0403"/>
<path d="M336.512 6.8734C337.05 6.8734 337.487 6.43719 337.487 5.8991C337.487 5.36101 337.05 4.9248 336.512 4.9248C335.974 4.9248 335.538 5.36101 335.538 5.8991C335.538 6.43719 335.974 6.8734 336.512 6.8734Z" fill="#DD0403"/>
<path d="M336.512 12.1991C337.05 12.1991 337.487 11.7629 337.487 11.2248C337.487 10.6867 337.05 10.2505 336.512 10.2505C335.974 10.2505 335.538 10.6867 335.538 11.2248C335.538 11.7629 335.974 12.1991 336.512 12.1991Z" fill="#DD0403"/>
<path d="M342.205 10.248C341.667 10.248 341.231 10.6839 341.231 11.2223C341.231 11.7608 341.667 12.1966 342.205 12.1966C342.744 12.1966 343.18 11.7608 343.18 11.2223C343.18 10.6839 342.744 10.248 342.205 10.248Z" fill="#DD0403"/>
<path d="M347.896 4.9248C347.358 4.9248 346.922 5.36061 346.922 5.8991C346.922 6.43759 347.358 6.8734 347.896 6.8734C348.435 6.8734 348.87 6.43759 348.87 5.8991C348.87 5.36061 348.435 4.9248 347.896 4.9248Z" fill="#DD0403"/>
<path d="M353.589 4.9248C353.051 4.9248 352.615 5.36061 352.615 5.8991C352.615 6.43759 353.051 6.8734 353.589 6.8734C354.128 6.8734 354.563 6.43759 354.563 5.8991C354.563 5.36061 354.128 4.9248 353.589 4.9248Z" fill="#DD0403"/>
<path d="M353.589 10.248C353.051 10.248 352.615 10.6839 352.615 11.2223C352.615 11.7608 353.051 12.1966 353.589 12.1966C354.128 12.1966 354.563 11.7608 354.563 11.2223C354.563 10.6839 354.128 10.248 353.589 10.248Z" fill="#DD0403"/>
</g>
<g clip-path="url(#clip3_5093_12)">
<path d="M35.8696 15.791C36.4191 15.791 36.8638 16.2357 36.8638 16.7852C36.8638 17.3347 36.4191 17.7794 35.8696 17.7794C35.3201 17.7794 34.8754 17.3347 34.8754 16.7852C34.8754 16.2357 35.3201 15.791 35.8696 15.791Z" fill="#DD0403"/>
<path d="M30.0327 17.7794C29.4836 17.7794 29.0385 17.3343 29.0385 16.7852C29.0385 16.2361 29.4836 15.791 30.0327 15.791C30.5817 15.791 31.0269 16.2361 31.0269 16.7852C31.0269 17.3343 30.5817 17.7794 30.0327 17.7794Z" fill="#DD0403"/>
<path d="M30.0327 23.2115C29.4836 23.2115 29.0385 22.7664 29.0385 22.2173C29.0385 21.6683 29.4836 21.2231 30.0327 21.2231C30.5817 21.2231 31.0269 21.6683 31.0269 22.2173C31.0269 22.7664 30.5817 23.2115 30.0327 23.2115Z" fill="#DD0403"/>
<path d="M24.226 17.7794C23.677 17.7794 23.2319 17.3343 23.2319 16.7852C23.2319 16.2361 23.677 15.791 24.226 15.791C24.7751 15.791 25.2202 16.2361 25.2202 16.7852C25.2202 17.3343 24.7751 17.7794 24.226 17.7794Z" fill="#DD0403"/>
<path d="M24.226 23.2115C23.677 23.2115 23.2319 22.7664 23.2319 22.2173C23.2319 21.6683 23.677 21.2231 24.226 21.2231C24.7751 21.2231 25.2202 21.6683 25.2202 22.2173C25.2202 22.7664 24.7751 23.2115 24.226 23.2115Z" fill="#DD0403"/>
<path d="M18.417 21.2231C18.9664 21.2231 19.4111 21.6678 19.4111 22.2173C19.4111 22.7668 18.9664 23.2115 18.417 23.2115C17.8675 23.2115 17.4228 22.7668 17.4228 22.2173C17.4228 21.6678 17.8675 21.2231 18.417 21.2231Z" fill="#DD0403"/>
<path d="M12.6103 15.791C13.1598 15.791 13.6045 16.2357 13.6045 16.7852C13.6045 17.3347 13.1598 17.7794 12.6103 17.7794C12.0608 17.7794 11.6161 17.3347 11.6161 16.7852C11.6161 16.2357 12.0608 15.791 12.6103 15.791Z" fill="#DD0403"/>
<path d="M6.80123 15.791C7.35071 15.791 7.79541 16.2357 7.79541 16.7852C7.79541 17.3347 7.35071 17.7794 6.80123 17.7794C6.25176 17.7794 5.80705 17.3347 5.80705 16.7852C5.80705 16.2357 6.25176 15.791 6.80123 15.791Z" fill="#DD0403"/>
<path d="M0.994589 17.7794C0.445113 17.7794 0.000408888 17.3347 0.000408888 16.7852C0.000408888 16.2357 0.445113 15.791 0.994589 15.791C1.54407 15.791 1.98877 16.2357 1.98877 16.7852C1.98877 17.3347 1.54407 17.7794 0.994589 17.7794Z" fill="#DD0403"/>
<path d="M0.994589 21.2231C1.54407 21.2231 1.98877 21.6678 1.98877 22.2173C1.98877 22.7668 1.54407 23.2115 0.994589 23.2115C0.445113 23.2115 0.000408888 22.7668 0.000408888 22.2173C0.000408888 21.6678 0.445113 21.2231 0.994589 21.2231Z" fill="#DD0403"/>
<path d="M35.8696 4.9248C36.4191 4.9248 36.8638 5.36951 36.8638 5.91898C36.8638 6.46846 36.4191 6.91316 35.8696 6.91316C35.3201 6.91316 34.8754 6.46846 34.8754 5.91898C34.8754 5.36951 35.3201 4.9248 35.8696 4.9248Z" fill="#DD0403"/>
<path d="M30.0327 6.91316C29.4836 6.91316 29.0385 6.46805 29.0385 5.91898C29.0385 5.36991 29.4836 4.9248 30.0327 4.9248C30.5817 4.9248 31.0269 5.36991 31.0269 5.91898C31.0269 6.46805 30.5817 6.91316 30.0327 6.91316Z" fill="#DD0403"/>
<path d="M30.0327 12.3477C29.4836 12.3477 29.0385 11.9026 29.0385 11.3536C29.0385 10.8045 29.4836 10.3594 30.0327 10.3594C30.5817 10.3594 31.0269 10.8045 31.0269 11.3536C31.0269 11.9026 30.5817 12.3477 30.0327 12.3477Z" fill="#DD0403"/>
<path d="M24.226 6.91316C23.677 6.91316 23.2319 6.46805 23.2319 5.91898C23.2319 5.36991 23.677 4.9248 24.226 4.9248C24.7751 4.9248 25.2202 5.36991 25.2202 5.91898C25.2202 6.46805 24.7751 6.91316 24.226 6.91316Z" fill="#DD0403"/>
<path d="M24.226 12.3477C23.677 12.3477 23.2319 11.9026 23.2319 11.3536C23.2319 10.8045 23.677 10.3594 24.226 10.3594C24.7751 10.3594 25.2202 10.8045 25.2202 11.3536C25.2202 11.9026 24.7751 12.3477 24.226 12.3477Z" fill="#DD0403"/>
<path d="M18.417 10.3564C18.9664 10.3564 19.4111 10.8011 19.4111 11.3506C19.4111 11.9001 18.9664 12.3448 18.417 12.3448C17.8675 12.3448 17.4228 11.9001 17.4228 11.3506C17.4228 10.8011 17.8675 10.3564 18.417 10.3564Z" fill="#DD0403"/>
<path d="M12.6103 4.9248C13.1598 4.9248 13.6045 5.36951 13.6045 5.91898C13.6045 6.46846 13.1598 6.91316 12.6103 6.91316C12.0608 6.91316 11.6161 6.46846 11.6161 5.91898C11.6161 5.36951 12.0608 4.9248 12.6103 4.9248Z" fill="#DD0403"/>
<path d="M6.80123 4.9248C7.35071 4.9248 7.79541 5.36951 7.79541 5.91898C7.79541 6.46846 7.35071 6.91316 6.80123 6.91316C6.25176 6.91316 5.80705 6.46846 5.80705 5.91898C5.80705 5.36951 6.25176 4.9248 6.80123 4.9248Z" fill="#DD0403"/>
<path d="M6.80123 10.3564C7.35071 10.3564 7.79541 10.8011 7.79541 11.3506C7.79541 11.9001 7.35071 12.3448 6.80123 12.3448C6.25176 12.3448 5.80705 11.9001 5.80705 11.3506C5.80705 10.8011 6.25176 10.3564 6.80123 10.3564Z" fill="#DD0403"/>
</g>
<g clip-path="url(#clip4_5093_12)">
<path d="M123.167 5.06143C122.52 5.03582 118.348 4.96132 117.855 4.83094C115.831 4.29779 114.982 2.84036 114.982 0C114.982 3.6785 113.664 5.03815 110.041 5.07074C106.419 5.03815 105.101 3.6785 105.101 0C105.101 3.72274 103.753 5.07307 100.028 5.07307C103.751 5.07307 105.101 6.42108 105.101 10.1461C105.101 6.46764 106.419 5.10799 110.041 5.0754C113.664 5.10799 114.982 6.46764 114.982 10.1461C114.982 7.29414 115.838 5.83438 117.883 5.30822C118.369 5.18249 122.53 5.11032 123.165 5.08471C123.347 5.07773 127.74 5.07307 127.933 5.07307C127.742 5.07307 123.347 5.06841 123.167 5.06143Z" fill="#DD0403"/>
<path d="M94.9521 0C94.9521 2.83803 94.1023 4.29779 92.0791 4.83094C91.5855 4.96132 87.4135 5.03582 86.7662 5.06143C86.587 5.06841 82.1937 5.07307 82.0005 5.07307C82.1937 5.07307 86.5893 5.07773 86.7686 5.08471C87.4018 5.11032 91.5646 5.18249 92.0512 5.30822C94.0953 5.83438 94.9521 7.29414 94.9521 10.1461C94.9521 6.42341 96.3001 5.07307 100.025 5.07307C96.3024 5.07307 94.9521 3.72506 94.9521 0Z" fill="#DD0403"/>
</g>
<g clip-path="url(#clip5_5093_12)">
<path d="M173.523 5.06143C172.876 5.03582 168.704 4.96132 168.211 4.83094C166.187 4.29779 165.338 2.84036 165.338 0C165.338 3.6785 164.02 5.03815 160.397 5.07074C156.775 5.03815 155.457 3.6785 155.457 0C155.457 3.72274 154.109 5.07307 150.384 5.07307C154.107 5.07307 155.457 6.42108 155.457 10.1461C155.457 6.46764 156.775 5.10799 160.397 5.0754C164.02 5.10799 165.338 6.46764 165.338 10.1461C165.338 7.29414 166.194 5.83438 168.238 5.30822C168.725 5.18249 172.886 5.11032 173.521 5.08471C173.703 5.07773 178.096 5.07307 178.289 5.07307C178.098 5.07307 173.703 5.06841 173.523 5.06143Z" fill="#DD0403"/>
<path d="M145.308 0C145.308 2.83803 144.458 4.29779 142.435 4.83094C141.942 4.96132 137.769 5.03582 137.122 5.06143C136.943 5.06841 132.55 5.07307 132.356 5.07307C132.55 5.07307 136.945 5.07773 137.125 5.08471C137.758 5.11032 141.921 5.18249 142.407 5.30822C144.451 5.83438 145.308 7.29414 145.308 10.1461C145.308 6.42341 146.656 5.07307 150.381 5.07307C146.658 5.07307 145.308 3.72506 145.308 0Z" fill="#DD0403"/>
</g>
<g clip-path="url(#clip6_5093_12)">
<path d="M223.879 5.06143C223.232 5.03582 219.06 4.96132 218.566 4.83094C216.543 4.29779 215.693 2.84036 215.693 0C215.693 3.6785 214.375 5.03815 210.753 5.07074C207.13 5.03815 205.812 3.6785 205.812 0C205.812 3.72274 204.464 5.07307 200.739 5.07307C204.462 5.07307 205.812 6.42108 205.812 10.1461C205.812 6.46764 207.13 5.10799 210.753 5.0754C214.375 5.10799 215.693 6.46764 215.693 10.1461C215.693 7.29414 216.55 5.83438 218.594 5.30822C219.081 5.18249 223.241 5.11032 223.877 5.08471C224.058 5.07773 228.451 5.07307 228.645 5.07307C228.454 5.07307 224.058 5.06841 223.879 5.06143Z" fill="#DD0403"/>
<path d="M195.664 0C195.664 2.83803 194.814 4.29779 192.791 4.83094C192.297 4.96132 188.125 5.03582 187.478 5.06143C187.299 5.06841 182.906 5.07307 182.712 5.07307C182.906 5.07307 187.301 5.07773 187.48 5.08471C188.114 5.11032 192.277 5.18249 192.763 5.30822C194.807 5.83438 195.664 7.29414 195.664 10.1461C195.664 6.42341 197.012 5.07307 200.737 5.07307C197.014 5.07307 195.664 3.72506 195.664 0Z" fill="#DD0403"/>
</g>
<g clip-path="url(#clip7_5093_12)">
<path d="M274.235 5.06143C273.588 5.03582 269.416 4.96132 268.922 4.83094C266.899 4.29779 266.049 2.84036 266.049 0C266.049 3.6785 264.731 5.03815 261.109 5.07074C257.486 5.03815 256.168 3.6785 256.168 0C256.168 3.72274 254.82 5.07307 251.095 5.07307C254.818 5.07307 256.168 6.42108 256.168 10.1461C256.168 6.46764 257.486 5.10799 261.109 5.0754C264.731 5.10799 266.049 6.46764 266.049 10.1461C266.049 7.29414 266.906 5.83438 268.95 5.30822C269.436 5.18249 273.597 5.11032 274.233 5.08471C274.414 5.07773 278.807 5.07307 279.001 5.07307C278.81 5.07307 274.414 5.06841 274.235 5.06143Z" fill="#DD0403"/>
<path d="M246.019 0C246.019 2.83803 245.17 4.29779 243.146 4.83094C242.653 4.96132 238.481 5.03582 237.834 5.06143C237.654 5.06841 233.261 5.07307 233.068 5.07307C233.261 5.07307 237.657 5.07773 237.836 5.08471C238.469 5.11032 242.632 5.18249 243.119 5.30822C245.163 5.83438 246.019 7.29414 246.019 10.1461C246.019 6.42341 247.367 5.07307 251.093 5.07307C247.37 5.07307 246.019 3.72506 246.019 0Z" fill="#DD0403"/>
</g>
<path d="M84.5005 14.4248L58.5005 57.4248H310L282.5 14.4248H84.5005Z" fill="#DD0403" stroke="#DD0403"/>
<defs>
<clipPath id="clip0_5093_12">
<rect width="44.2266" height="9.52619" fill="white" transform="translate(359.227 53.9248) rotate(-180)"/>
</clipPath>
<clipPath id="clip1_5093_12">
<rect width="45.1292" height="9.72061" fill="white" transform="matrix(1 -8.74228e-08 -8.74228e-08 -1 1.04736 54.9248)"/>
</clipPath>
<clipPath id="clip2_5093_12">
<rect width="36.1265" height="17.9229" fill="white" transform="translate(324.127 4.9248)"/>
</clipPath>
<clipPath id="clip3_5093_12">
<rect width="36.8638" height="18.2887" fill="white" transform="matrix(-1 0 0 1 36.8638 4.9248)"/>
</clipPath>
<clipPath id="clip4_5093_12">
<rect width="45.9324" height="10.1438" fill="white" transform="translate(82.0005)"/>
</clipPath>
<clipPath id="clip5_5093_12">
<rect width="45.9324" height="10.1438" fill="white" transform="translate(132.356)"/>
</clipPath>
<clipPath id="clip6_5093_12">
<rect width="45.9324" height="10.1438" fill="white" transform="translate(182.712)"/>
</clipPath>
<clipPath id="clip7_5093_12">
<rect width="45.9324" height="10.1438" fill="white" transform="translate(233.068)"/>
</clipPath>
</defs>
</svg>
