<svg width="366" height="182" viewBox="0 0 366 182" fill="none" xmlns="http://www.w3.org/2000/svg">
<g clip-path="url(#clip0_3004_1422)">
<path d="M9.85258 107.893C4.40713 107.893 0 112.3 0 117.746C0 123.191 4.40713 127.598 9.85258 127.598C15.298 127.598 19.7052 123.191 19.7052 117.746C19.7052 112.3 15.298 107.893 9.85258 107.893Z" fill="white"/>
<path d="M67.6988 127.598C73.1402 127.598 77.5514 123.187 77.5514 117.746C77.5514 112.304 73.1402 107.893 67.6988 107.893C62.2573 107.893 57.8462 112.304 57.8462 117.746C57.8462 123.187 62.2573 127.598 67.6988 127.598Z" fill="white"/>
<path d="M67.6988 181.43C73.1402 181.43 77.5514 177.019 77.5514 171.577C77.5514 166.136 73.1402 161.725 67.6988 161.725C62.2573 161.725 57.8462 166.136 57.8462 171.577C57.8462 177.019 62.2573 181.43 67.6988 181.43Z" fill="white"/>
<path d="M125.245 127.598C130.687 127.598 135.098 123.187 135.098 117.746C135.098 112.304 130.687 107.893 125.245 107.893C119.804 107.893 115.393 112.304 115.393 117.746C115.393 123.187 119.804 127.598 125.245 127.598Z" fill="white"/>
<path d="M125.245 181.43C130.687 181.43 135.098 177.019 135.098 171.577C135.098 166.136 130.687 161.725 125.245 161.725C119.804 161.725 115.393 166.136 115.393 171.577C115.393 177.019 119.804 181.43 125.245 181.43Z" fill="white"/>
<path d="M182.815 161.725C177.37 161.725 172.962 166.132 172.962 171.577C172.962 177.023 177.37 181.43 182.815 181.43C188.26 181.43 192.668 177.023 192.668 171.577C192.668 166.132 188.26 161.725 182.815 161.725Z" fill="white"/>
<path d="M240.361 107.893C234.916 107.893 230.509 112.3 230.509 117.746C230.509 123.191 234.916 127.598 240.361 127.598C245.807 127.598 250.214 123.191 250.214 117.746C250.214 112.3 245.807 107.893 240.361 107.893Z" fill="white"/>
<path d="M297.931 107.893C292.485 107.893 288.078 112.3 288.078 117.746C288.078 123.191 292.485 127.598 297.931 127.598C303.376 127.598 307.784 123.191 307.784 117.746C307.784 112.3 303.376 107.893 297.931 107.893Z" fill="white"/>
<path d="M355.478 127.598C360.923 127.598 365.33 123.191 365.33 117.746C365.33 112.3 360.923 107.893 355.478 107.893C350.032 107.893 345.625 112.3 345.625 117.746C345.625 123.191 350.032 127.598 355.478 127.598Z" fill="white"/>
<path d="M355.478 161.725C350.032 161.725 345.625 166.132 345.625 171.577C345.625 177.023 350.032 181.43 355.478 181.43C360.923 181.43 365.33 177.023 365.33 171.577C365.33 166.132 360.923 161.725 355.478 161.725Z" fill="white"/>
<path d="M9.85258 0.207031C4.40713 0.207031 0 4.61416 0 10.0596C0 15.5051 4.40713 19.9122 9.85258 19.9122C15.298 19.9122 19.7052 15.5051 19.7052 10.0596C19.7052 4.61416 15.298 0.207031 9.85258 0.207031Z" fill="white"/>
<path d="M67.6988 19.9122C73.1402 19.9122 77.5514 15.501 77.5514 10.0596C77.5514 4.61818 73.1402 0.207031 67.6988 0.207031C62.2573 0.207031 57.8462 4.61818 57.8462 10.0596C57.8462 15.501 62.2573 19.9122 67.6988 19.9122Z" fill="white"/>
<path d="M67.6988 73.7662C73.1402 73.7662 77.5514 69.355 77.5514 63.9136C77.5514 58.4722 73.1402 54.061 67.6988 54.061C62.2573 54.061 57.8462 58.4722 57.8462 63.9136C57.8462 69.355 62.2573 73.7662 67.6988 73.7662Z" fill="white"/>
<path d="M125.245 19.9122C130.687 19.9122 135.098 15.501 135.098 10.0596C135.098 4.61818 130.687 0.207031 125.245 0.207031C119.804 0.207031 115.393 4.61818 115.393 10.0596C115.393 15.501 119.804 19.9122 125.245 19.9122Z" fill="white"/>
<path d="M125.245 73.7662C130.687 73.7662 135.098 69.355 135.098 63.9136C135.098 58.4722 130.687 54.061 125.245 54.061C119.804 54.061 115.393 58.4722 115.393 63.9136C115.393 69.355 119.804 73.7662 125.245 73.7662Z" fill="white"/>
<path d="M182.815 54.0386C177.37 54.0386 172.962 58.4457 172.962 63.8912C172.962 69.3366 177.37 73.7437 182.815 73.7437C188.26 73.7437 192.668 69.3366 192.668 63.8912C192.668 58.4457 188.26 54.0386 182.815 54.0386Z" fill="white"/>
<path d="M240.361 0.207031C234.916 0.207031 230.509 4.61416 230.509 10.0596C230.509 15.5051 234.916 19.9122 240.361 19.9122C245.807 19.9122 250.214 15.5051 250.214 10.0596C250.214 4.61416 245.807 0.207031 240.361 0.207031Z" fill="white"/>
<path d="M297.931 0.207031C292.485 0.207031 288.078 4.61416 288.078 10.0596C288.078 15.5051 292.485 19.9122 297.931 19.9122C303.376 19.9122 307.784 15.5051 307.784 10.0596C307.784 4.61416 303.376 0.207031 297.931 0.207031Z" fill="white"/>
<path d="M297.931 54.0386C292.485 54.0386 288.078 58.4457 288.078 63.8912C288.078 69.3366 292.485 73.7437 297.931 73.7437C303.376 73.7437 307.784 69.3366 307.784 63.8912C307.784 58.4457 303.376 54.0386 297.931 54.0386Z" fill="white"/>
</g>
<defs>
<clipPath id="clip0_3004_1422">
<rect width="365.33" height="181.246" fill="white" transform="translate(0 0.207031)"/>
</clipPath>
</defs>
</svg>
