<svg width="108" height="95" viewBox="0 0 108 95" fill="none" xmlns="http://www.w3.org/2000/svg">
<path d="M106.87 19.957C106.98 20.877 107.04 21.797 107.04 22.747C107.04 35.867 96.59 46.507 83.7 46.507C70.81 46.507 60.36 35.867 60.36 22.747C60.36 12.247 67.05 3.34703 76.32 0.207031C63.6 2.41703 53.92 13.677 53.92 27.257C53.92 35.737 57.7 43.307 63.63 48.347C57.34 45.837 50.48 45.887 44.38 48.207C50.21 43.177 53.92 35.657 53.92 27.267C53.92 13.687 44.24 2.42703 31.52 0.217031C40.79 3.35703 47.48 12.257 47.48 22.757C47.48 35.877 37.03 46.517 24.14 46.517C11.25 46.517 0.8 35.867 0.8 22.747C0.8 21.807 0.86 20.877 0.97 19.957C0.34 22.277 0 24.727 0 27.247C0 42.407 12.07 54.697 26.96 54.697C30.27 54.697 33.43 54.087 36.36 52.977C34.37 54.697 32.59 56.747 31.11 59.107C23.92 70.537 26.11 85.347 35.65 94.187C29.5 86.447 28.58 75.277 34.15 66.437C41.1 55.387 55.54 52.167 66.39 59.237C77.25 66.317 80.41 81.007 73.46 92.057C72.96 92.847 72.42 93.597 71.84 94.317C73.6 92.707 75.18 90.837 76.52 88.707C83.93 76.927 81.38 61.547 71.08 52.827C74.12 54.037 77.42 54.697 80.88 54.697C95.77 54.697 107.84 42.407 107.84 27.247C107.84 24.717 107.5 22.277 106.87 19.957Z" fill="white"/>
</svg>
