<svg width="34" height="34" viewBox="0 0 34 34" fill="none" xmlns="http://www.w3.org/2000/svg">
<path opacity="0.5" d="M17.8486 3.4248C24.6826 3.84638 30.1506 9.31353 30.5723 16.1475H34V17.8477H30.5713C30.1498 24.6818 24.6827 30.1487 17.8486 30.5703V34H16.1484V30.5703C9.3152 30.1489 3.8486 24.6834 3.42578 17.8506H0V16.1504H3.4248C3.84506 9.31498 9.31338 3.84536 16.1484 3.42383V0H17.8486V3.4248ZM17.8486 13.1758H16.1484V9.08887C12.4338 9.48356 9.48336 12.4354 9.08984 16.1504H13.1758V17.8506H9.09082C9.48667 21.563 12.4356 24.5117 16.1484 24.9062V20.8242H17.8486V24.9062C21.5623 24.5115 24.5116 21.5614 24.9062 17.8477H20.8242V16.1475H24.9062C24.5115 12.4339 21.5622 9.48355 17.8486 9.08887V13.1758ZM17.8486 16.1504H19.126V17.8506H17.8486V19.125H16.1484V17.8506H14.876V16.1504H16.1484V14.875H17.8486V16.1504Z" fill="white"/>
</svg>
