<svg width="165" height="165" viewBox="0 0 165 165" fill="none" xmlns="http://www.w3.org/2000/svg">
<path d="M82.5 0C36.9371 0 0 36.9365 0 82.5C0 128.064 36.9371 165 82.5 165C128.063 165 165 128.064 165 82.5C165 36.9365 128.063 0 82.5 0ZM111.014 86.8732L69.7641 112.654C68.9294 113.176 67.9803 113.438 67.0312 113.438C66.1714 113.438 65.3104 113.224 64.5311 112.79C62.8921 111.882 61.875 110.157 61.875 108.281V56.7188C61.875 54.8432 62.8921 53.1184 64.5311 52.2096C66.1702 51.2957 68.1743 51.3511 69.7641 52.3456L111.014 78.1268C112.521 79.0711 113.438 80.7227 113.438 82.5C113.438 84.2773 112.521 85.9292 111.014 86.8732Z" fill="#DD0201"/>
<path d="M111.014 86.8732L69.7641 112.654C68.9294 113.176 67.9803 113.438 67.0312 113.438C66.1714 113.438 65.3104 113.224 64.5311 112.79C62.8921 111.882 61.875 110.157 61.875 108.281V56.7188C61.875 54.8432 62.8921 53.1184 64.5311 52.2096C66.1702 51.2957 68.1743 51.3511 69.7641 52.3456L111.014 78.1268C112.521 79.0711 113.438 80.7227 113.438 82.5C113.438 84.2773 112.521 85.9292 111.014 86.8732Z" fill="white"/>
</svg>
