<svg width="44" height="106" viewBox="0 0 44 106" fill="none" xmlns="http://www.w3.org/2000/svg">
<g clip-path="url(#clip0_3004_196)">
<path d="M21.8301 94.6996C21.9401 93.214 22.2601 83.6375 22.8201 82.5045C25.1101 77.8606 31.3701 75.91 43.5701 75.91C27.7701 75.91 21.9301 72.8853 21.7901 64.57C21.9301 56.2548 27.7701 53.2301 43.5701 53.2301C27.5801 53.2301 21.7801 50.1359 21.7801 41.5854C21.7801 50.1305 15.9901 53.2301 -0.00993442 53.2301C15.7901 53.2301 21.6301 56.2548 21.7701 64.57C21.6301 72.8853 15.7901 75.91 -0.00993628 75.91C12.2401 75.91 18.5101 77.8766 20.7701 82.5687C21.3101 83.6856 21.6201 93.2353 21.7301 94.6942C21.7601 95.1111 21.7801 105.195 21.7801 105.639C21.7801 105.201 21.8001 95.1111 21.8301 94.6996Z" fill="black"/>
<path d="M43.5701 29.9355C31.3801 29.9355 25.1101 27.985 22.8201 23.341C22.2601 22.2081 21.9401 12.6316 21.8301 11.146C21.8001 10.7345 21.7801 0.65034 21.7801 0.206787C21.7801 0.65034 21.7601 10.7398 21.7301 11.1513C21.6201 12.6049 21.3101 22.16 20.7701 23.2769C18.5101 27.9689 12.2401 29.9355 -0.0099359 29.9355C15.9801 29.9355 21.7801 33.0297 21.7801 41.5801C21.7801 33.0351 27.5701 29.9355 43.5701 29.9355Z" fill="black"/>
</g>
<defs>
<clipPath id="clip0_3004_196">
<rect width="105.432" height="43.57" fill="white" transform="translate(43.5701 0.206787) rotate(90)"/>
</clipPath>
</defs>
</svg>
