<svg width="108" height="95" viewBox="0 0 108 95" fill="none" xmlns="http://www.w3.org/2000/svg">
<path d="M106.87 19.9568C106.98 20.8768 107.04 21.7968 107.04 22.7468C107.04 35.8668 96.59 46.5068 83.7 46.5068C70.81 46.5068 60.36 35.8668 60.36 22.7468C60.36 12.2468 67.05 3.34679 76.32 0.206787C63.6 2.41679 53.92 13.6768 53.92 27.2568C53.92 35.7368 57.7 43.3068 63.63 48.3468C57.34 45.8368 50.48 45.8868 44.38 48.2068C50.21 43.1768 53.92 35.6568 53.92 27.2668C53.92 13.6868 44.24 2.42679 31.52 0.216787C40.79 3.35679 47.48 12.2568 47.48 22.7568C47.48 35.8768 37.03 46.5168 24.14 46.5168C11.25 46.5168 0.8 35.8668 0.8 22.7468C0.8 21.8068 0.86 20.8768 0.97 19.9568C0.34 22.2768 0 24.7268 0 27.2468C0 42.4068 12.07 54.6968 26.96 54.6968C30.27 54.6968 33.43 54.0868 36.36 52.9768C34.37 54.6968 32.59 56.7468 31.11 59.1068C23.92 70.5368 26.11 85.3468 35.65 94.1868C29.5 86.4468 28.58 75.2768 34.15 66.4368C41.1 55.3868 55.54 52.1668 66.39 59.2368C77.25 66.3168 80.41 81.0068 73.46 92.0568C72.96 92.8468 72.42 93.5968 71.84 94.3168C73.6 92.7068 75.18 90.8368 76.52 88.7068C83.93 76.9268 81.38 61.5468 71.08 52.8268C74.12 54.0368 77.42 54.6968 80.88 54.6968C95.77 54.6968 107.84 42.4068 107.84 27.2468C107.84 24.7168 107.5 22.2768 106.87 19.9568Z" fill="black"/>
</svg>
