<svg width="194" height="215" viewBox="0 0 194 215" fill="none" xmlns="http://www.w3.org/2000/svg">
<g clip-path="url(#clip0_5106_5)">
<path d="M32.8155 207.465C40.3214 199.959 40.3214 187.789 32.8155 180.283C25.3096 172.778 13.1402 172.778 5.63429 180.283C-1.87158 187.789 -1.87158 199.959 5.63429 207.465C13.1402 214.97 25.3096 214.97 32.8155 207.465Z" fill="white"/>
<path d="M172.95 173C163.42 173 155.36 179.43 152.87 188.17C150.44 180.34 143.14 174.66 134.51 174.66C125.88 174.66 118.58 180.35 116.15 188.17C113.66 179.42 105.61 173 96.0699 173C86.5299 173 78.4799 179.43 75.9899 188.17C73.5599 180.34 66.2599 174.66 57.6299 174.66C47.0199 174.66 38.4099 183.26 38.4099 193.88C38.4099 204.5 47.0099 213.1 57.6299 213.1C66.2599 213.1 73.5599 207.41 75.9899 199.59C78.4799 208.34 86.5299 214.76 96.0699 214.76C105.61 214.76 113.66 208.33 116.15 199.59C118.58 207.42 125.88 213.1 134.51 213.1C143.14 213.1 150.44 207.41 152.87 199.59C155.36 208.34 163.41 214.76 172.95 214.76C184.46 214.76 193.83 205.4 193.83 193.88C193.83 182.36 184.46 173 172.95 173ZM96.0799 211.43C86.3999 211.43 78.5199 203.55 78.5199 193.87C78.5199 184.19 86.3999 176.32 96.0799 176.32C105.76 176.32 113.64 184.2 113.64 193.88C113.64 203.56 105.76 211.44 96.0799 211.44V211.43ZM172.95 211.43C163.27 211.43 155.39 203.55 155.39 193.87C155.39 184.19 163.27 176.31 172.95 176.31C182.63 176.31 190.51 184.19 190.51 193.87C190.51 203.55 182.63 211.43 172.95 211.43Z" fill="white"/>
</g>
<g clip-path="url(#clip1_5106_5)">
<path d="M4.27 46.6699C1.91 46.6699 0 48.5799 0 50.9399C0 53.2999 1.91 55.2099 4.27 55.2099C6.63 55.2099 8.54 53.2999 8.54 50.9399C8.54 48.5799 6.63 46.6699 4.27 46.6699Z" fill="white"/>
<path d="M29.3401 55.2099C31.6983 55.2099 33.6101 53.2982 33.6101 50.9399C33.6101 48.5817 31.6983 46.6699 29.3401 46.6699C26.9818 46.6699 25.0701 48.5817 25.0701 50.9399C25.0701 53.2982 26.9818 55.2099 29.3401 55.2099Z" fill="white"/>
<path d="M29.3401 78.54C31.6983 78.54 33.6101 76.6283 33.6101 74.27C33.6101 71.9117 31.6983 70 29.3401 70C26.9818 70 25.0701 71.9117 25.0701 74.27C25.0701 76.6283 26.9818 78.54 29.3401 78.54Z" fill="white"/>
<path d="M54.28 55.2099C56.6383 55.2099 58.55 53.2982 58.55 50.9399C58.55 48.5817 56.6383 46.6699 54.28 46.6699C51.9218 46.6699 50.01 48.5817 50.01 50.9399C50.01 53.2982 51.9218 55.2099 54.28 55.2099Z" fill="white"/>
<path d="M54.28 78.54C56.6383 78.54 58.55 76.6283 58.55 74.27C58.55 71.9117 56.6383 70 54.28 70C51.9218 70 50.01 71.9117 50.01 74.27C50.01 76.6283 51.9218 78.54 54.28 78.54Z" fill="white"/>
<path d="M79.23 70C76.87 70 74.96 71.91 74.96 74.27C74.96 76.63 76.87 78.54 79.23 78.54C81.59 78.54 83.5 76.63 83.5 74.27C83.5 71.91 81.59 70 79.23 70Z" fill="white"/>
<path d="M104.17 46.6699C101.81 46.6699 99.8999 48.5799 99.8999 50.9399C99.8999 53.2999 101.81 55.2099 104.17 55.2099C106.53 55.2099 108.44 53.2999 108.44 50.9399C108.44 48.5799 106.53 46.6699 104.17 46.6699Z" fill="white"/>
<path d="M129.12 46.6699C126.76 46.6699 124.85 48.5799 124.85 50.9399C124.85 53.2999 126.76 55.2099 129.12 55.2099C131.48 55.2099 133.39 53.2999 133.39 50.9399C133.39 48.5799 131.48 46.6699 129.12 46.6699Z" fill="white"/>
<path d="M154.06 55.2099C156.42 55.2099 158.33 53.2999 158.33 50.9399C158.33 48.5799 156.42 46.6699 154.06 46.6699C151.7 46.6699 149.79 48.5799 149.79 50.9399C149.79 53.2999 151.7 55.2099 154.06 55.2099Z" fill="white"/>
<path d="M154.06 70C151.7 70 149.79 71.91 149.79 74.27C149.79 76.63 151.7 78.54 154.06 78.54C156.42 78.54 158.33 76.63 158.33 74.27C158.33 71.91 156.42 70 154.06 70Z" fill="white"/>
<path d="M4.27 0C1.91 0 0 1.91 0 4.27C0 6.63 1.91 8.54 4.27 8.54C6.63 8.54 8.54 6.63 8.54 4.27C8.54 1.91 6.63 0 4.27 0Z" fill="white"/>
<path d="M29.3401 8.54C31.6983 8.54 33.6101 6.62826 33.6101 4.27C33.6101 1.91174 31.6983 0 29.3401 0C26.9818 0 25.0701 1.91174 25.0701 4.27C25.0701 6.62826 26.9818 8.54 29.3401 8.54Z" fill="white"/>
<path d="M29.3401 31.8798C31.6983 31.8798 33.6101 29.9681 33.6101 27.6098C33.6101 25.2516 31.6983 23.3398 29.3401 23.3398C26.9818 23.3398 25.0701 25.2516 25.0701 27.6098C25.0701 29.9681 26.9818 31.8798 29.3401 31.8798Z" fill="white"/>
<path d="M54.28 8.54C56.6383 8.54 58.55 6.62826 58.55 4.27C58.55 1.91174 56.6383 0 54.28 0C51.9218 0 50.01 1.91174 50.01 4.27C50.01 6.62826 51.9218 8.54 54.28 8.54Z" fill="white"/>
<path d="M54.28 31.8798C56.6383 31.8798 58.55 29.9681 58.55 27.6098C58.55 25.2516 56.6383 23.3398 54.28 23.3398C51.9218 23.3398 50.01 25.2516 50.01 27.6098C50.01 29.9681 51.9218 31.8798 54.28 31.8798Z" fill="white"/>
<path d="M79.23 23.3301C76.87 23.3301 74.96 25.2401 74.96 27.6001C74.96 29.9601 76.87 31.8701 79.23 31.8701C81.59 31.8701 83.5 29.9601 83.5 27.6001C83.5 25.2401 81.59 23.3301 79.23 23.3301Z" fill="white"/>
<path d="M104.17 0C101.81 0 99.8999 1.91 99.8999 4.27C99.8999 6.63 101.81 8.54 104.17 8.54C106.53 8.54 108.44 6.63 108.44 4.27C108.44 1.91 106.53 0 104.17 0Z" fill="white"/>
<path d="M129.12 0C126.76 0 124.85 1.91 124.85 4.27C124.85 6.63 126.76 8.54 129.12 8.54C131.48 8.54 133.39 6.63 133.39 4.27C133.39 1.91 131.48 0 129.12 0Z" fill="white"/>
<path d="M129.12 23.3301C126.76 23.3301 124.85 25.2401 124.85 27.6001C124.85 29.9601 126.76 31.8701 129.12 31.8701C131.48 31.8701 133.39 29.9601 133.39 27.6001C133.39 25.2401 131.48 23.3301 129.12 23.3301Z" fill="white"/>
</g>
<defs>
<clipPath id="clip0_5106_5">
<rect width="193.83" height="41.75" fill="white" transform="translate(0 173)"/>
</clipPath>
<clipPath id="clip1_5106_5">
<rect width="158.33" height="78.55" fill="white"/>
</clipPath>
</defs>
</svg>
